REM DIRINDEX 1\2\4,1\2\5,1\2\6,1\3\7,1\3\8
REM DIRNAME cjc128,folder01,folder02,folder03,folder04,folder05,folder06,folder07
TITLE ""
FILE "040_Proficiency Test05.mp3" MP3
  TRACK 01 AUDIO
    TITLE "0:"
    INDEX 01 00:00:00
  TRACK 02 AUDIO
    TITLE "6:cjc128_2275"
    INDEX 01 00:00:25
  TRACK 03 AUDIO
    TITLE "0:"
    INDEX 01 00:02:49
  TRACK 04 AUDIO
    TITLE "6:cjc128_2276"
    INDEX 01 00:03:19
  TRACK 05 AUDIO
    TITLE "0:"
    INDEX 01 00:05:28
  TRACK 06 AUDIO
    TITLE "4:cjc128_2277"
    INDEX 01 00:06:14
  TRACK 07 AUDIO
    TITLE "0:"
    INDEX 01 00:09:08
  TRACK 08 AUDIO
    TITLE "5:cjc128_2278"
    INDEX 01 00:13:18
  TRACK 09 AUDIO
    TITLE "0:"
    INDEX 01 00:16:48
  TRACK 10 AUDIO
    TITLE "6:cjc128_2279"
    INDEX 01 00:17:20
  TRACK 11 AUDIO
    TITLE "0:"
    INDEX 01 00:19:32
  TRACK 12 AUDIO
    TITLE "4:cjc128_2280"
    INDEX 01 00:20:06
  TRACK 13 AUDIO
    TITLE "0:"
    INDEX 01 00:23:50
  TRACK 14 AUDIO
    TITLE "5:cjc128_2281"
    INDEX 01 00:28:00
  TRACK 15 AUDIO
    TITLE "0:"
    INDEX 01 00:32:07
  TRACK 16 AUDIO
    TITLE "6:cjc128_2282"
    INDEX 01 00:32:60
  TRACK 17 AUDIO
    TITLE "0:"
    INDEX 01 00:34:59
  TRACK 18 AUDIO
    TITLE "4:cjc128_2283"
    INDEX 01 00:35:35
  TRACK 19 AUDIO
    TITLE "0:"
    INDEX 01 00:40:46
  TRACK 20 AUDIO
    TITLE "5:cjc128_2284"
    INDEX 01 00:46:02
  TRACK 21 AUDIO
    TITLE "0:"
    INDEX 01 00:50:46
  TRACK 22 AUDIO
    TITLE "6:cjc128_2285"
    INDEX 01 00:51:32
  TRACK 23 AUDIO
    TITLE "0:"
    INDEX 01 00:53:43
  TRACK 24 AUDIO
    TITLE "4:cjc128_2286"
    INDEX 01 00:54:19
  TRACK 25 AUDIO
    TITLE "0:"
    INDEX 01 00:58:26
  TRACK 26 AUDIO
    TITLE "5:cjc128_2287"
    INDEX 01 01:03:20
  TRACK 27 AUDIO
    TITLE "0:"
    INDEX 01 01:07:29
  TRACK 28 AUDIO
    TITLE "6:cjc128_2288"
    INDEX 01 01:08:15
  TRACK 29 AUDIO
    TITLE "0:"
    INDEX 01 01:09:71
  TRACK 30 AUDIO
    TITLE "4:cjc128_2289"
    INDEX 01 01:10:49
  TRACK 31 AUDIO
    TITLE "0:"
    INDEX 01 01:14:72
  TRACK 32 AUDIO
    TITLE "5:cjc128_2290"
    INDEX 01 01:18:04
  TRACK 33 AUDIO
    TITLE "0:"
    INDEX 01 01:21:10
  TRACK 34 AUDIO
    TITLE "6:cjc128_2291"
    INDEX 01 01:21:65
  TRACK 35 AUDIO
    TITLE "0:"
    INDEX 01 01:23:69
  TRACK 36 AUDIO
    TITLE "4:cjc128_2292"
    INDEX 01 01:24:47
  TRACK 37 AUDIO
    TITLE "0:"
    INDEX 01 01:28:08
  TRACK 38 AUDIO
    TITLE "5:cjc128_2293"
    INDEX 01 01:30:69
  TRACK 39 AUDIO
    TITLE "0:"
    INDEX 01 01:33:40
  TRACK 40 AUDIO
    TITLE "6:cjc128_2294"
    INDEX 01 01:34:20
  TRACK 41 AUDIO
    TITLE "0:"
    INDEX 01 01:36:25
  TRACK 42 AUDIO
    TITLE "4:cjc128_2295"
    INDEX 01 01:37:05
  TRACK 43 AUDIO
    TITLE "0:"
    INDEX 01 01:40:52
  TRACK 44 AUDIO
    TITLE "5:cjc128_2296"
    INDEX 01 01:45:32
  TRACK 45 AUDIO
    TITLE "0:"
    INDEX 01 01:49:28
  TRACK 46 AUDIO
    TITLE "6:cjc128_2297"
    INDEX 01 01:50:07
  TRACK 47 AUDIO
    TITLE "0:"
    INDEX 01 01:52:16
  TRACK 48 AUDIO
    TITLE "4:cjc128_2298"
    INDEX 01 01:52:73
  TRACK 49 AUDIO
    TITLE "0:"
    INDEX 01 01:56:53
  TRACK 50 AUDIO
    TITLE "5:cjc128_2299"
    INDEX 01 02:00:33
  TRACK 51 AUDIO
    TITLE "0:"
    INDEX 01 02:03:49
  TRACK 52 AUDIO
    TITLE "6:cjc128_2300"
    INDEX 01 02:04:19
  TRACK 53 AUDIO
    TITLE "0:"
    INDEX 01 02:06:28
  TRACK 54 AUDIO
    TITLE "4:cjc128_2301"
    INDEX 01 02:07:12
  TRACK 55 AUDIO
    TITLE "0:"
    INDEX 01 02:11:37
  TRACK 56 AUDIO
    TITLE "5:cjc128_2302"
    INDEX 01 02:15:19
  TRACK 57 AUDIO
    TITLE "0:"
    INDEX 01 02:18:43
  TRACK 58 AUDIO
    TITLE "6:cjc128_2303"
    INDEX 01 02:19:19
  TRACK 59 AUDIO
    TITLE "0:"
    INDEX 01 02:21:33
  TRACK 60 AUDIO
    TITLE "4:cjc128_2304"
    INDEX 01 02:22:11
  TRACK 61 AUDIO
    TITLE "0:"
    INDEX 01 02:24:67
  TRACK 62 AUDIO
    TITLE "5:cjc128_2305"
    INDEX 01 02:28:10
  TRACK 63 AUDIO
    TITLE "0:"
    INDEX 01 02:30:56
  TRACK 64 AUDIO
    TITLE "6:cjc128_2306"
    INDEX 01 02:31:30
  TRACK 65 AUDIO
    TITLE "0:"
    INDEX 01 02:33:41
  TRACK 66 AUDIO
    TITLE "4:cjc128_2307"
    INDEX 01 02:34:11
  TRACK 67 AUDIO
    TITLE "0:"
    INDEX 01 02:38:08
  TRACK 68 AUDIO
    TITLE "5:cjc128_2308"
    INDEX 01 02:42:00
  TRACK 69 AUDIO
    TITLE "0:"
    INDEX 01 02:45:28
  TRACK 70 AUDIO
    TITLE "6:cjc128_2309"
    INDEX 01 02:46:02
  TRACK 71 AUDIO
    TITLE "0:"
    INDEX 01 02:48:13
  TRACK 72 AUDIO
    TITLE "4:cjc128_2310"
    INDEX 01 02:48:68
  TRACK 73 AUDIO
    TITLE "0:"
    INDEX 01 02:53:59
  TRACK 74 AUDIO
    TITLE "5:cjc128_2311"
    INDEX 01 02:58:52
  TRACK 75 AUDIO
    TITLE "0:"
    INDEX 01 03:03:03
  TRACK 76 AUDIO
    TITLE "6:cjc128_2312"
    INDEX 01 03:03:65
  TRACK 77 AUDIO
    TITLE "0:"
    INDEX 01 03:05:70
  TRACK 78 AUDIO
    TITLE "4:cjc128_2313"
    INDEX 01 03:06:48
  TRACK 79 AUDIO
    TITLE "0:"
    INDEX 01 03:09:62
  TRACK 80 AUDIO
    TITLE "5:cjc128_2314"
    INDEX 01 03:12:68
  TRACK 81 AUDIO
    TITLE "0:"
    INDEX 01 03:15:31
